<svg width="249" height="246" viewBox="0 0 249 246" fill="none" xmlns="http://www.w3.org/2000/svg">
<path d="M192.483 22.1813C192.234 22.1813 192.047 22.3487 191.838 22.4662C191.308 22.763 190.765 22.8697 190.339 23.3474C189.802 23.9495 189.35 24.8151 189.126 25.584C188.835 26.5806 188.498 27.5887 188.299 28.6082C187.835 30.9897 187.78 33.3656 188.64 35.6632C189.448 37.8203 190.629 39.764 192.125 41.5145C193.136 42.6979 194.938 43.1278 196.318 42.3125C197.053 41.8778 197.521 41.2471 198.046 40.5934C198.678 39.8056 199.337 39.0399 199.969 38.2509C201.098 36.8413 202.451 35.1975 204.194 34.5358C204.916 34.2621 205.586 34.091 206.224 33.6399C206.778 33.2473 207.456 32.9077 207.824 32.3152C208.86 30.6452 208.378 28.361 208.013 26.5654C207.803 25.5321 207.583 24.4449 207.055 23.5252C206.475 22.5152 205.699 21.6354 204.801 20.8977C202.837 19.2851 200.41 18.4962 197.923 19.2448C196.72 19.6068 195.64 19.9894 194.79 20.9684C193.602 22.3358 193.311 24.3141 193.036 26.0422C192.721 28.0188 192.367 29.9484 192.523 31.9585C192.588 32.8101 192.716 33.758 193.257 34.4549C193.766 35.111 194.624 35.3895 195.435 35.3201C197.5 35.1435 199.173 33.2212 200.339 31.6883C201.073 30.7234 201.649 29.7611 202.031 28.6059C202.382 27.5429 202.661 26.3667 202.355 25.2591C202.087 24.2933 201.096 22.5037 199.823 23.1468C199.233 23.4446 199.088 24.234 198.99 24.8213C198.834 25.7478 198.908 26.7278 199.229 27.6142C199.358 27.9699 199.622 28.6214 200.104 28.59C200.689 28.5518 200.772 27.695 200.697 27.2699C200.602 26.7295 200.252 26.1876 199.767 25.9202C198.986 25.4897 198.539 26.1537 198.064 26.6543" stroke="#262215" stroke-width="10" stroke-linecap="round"/>
<path d="M188.034 27.5808C187.865 28.494 188.127 29.6395 189.006 29.9379V29.9379C191.705 30.8534 193.289 26.3265 195.929 25.2547C196.003 25.2248 196.075 25.1957 196.145 25.1675C198.79 24.0995 196.236 21.5119 193.436 22.055C191.981 22.3372 190.699 22.9797 189.984 23.6795C189.098 24.5461 188.282 26.2336 188.034 27.5808Z" fill="#D9D9D9"/>
<path d="M5.17558 200.93C4.39231 200.93 3.76364 200.934 3.38453 201.728C2.9373 202.664 3.2126 203.964 4.29891 204.282C6.04218 204.792 7.51101 203.093 8.29263 201.784C8.59986 201.27 8.38652 200.95 7.88885 200.651C7.30739 200.303 6.72995 200.7 6.16537 200.901" stroke="#262215" stroke-width="5" stroke-linecap="round"/>
<path d="M23.3029 195.245C22.9382 194.941 21.9049 195.331 21.5684 195.522C20.3244 196.226 19.8935 198.236 19.7334 199.525C19.4891 201.49 20.5141 203.506 22.3147 204.375C24.6431 205.498 28.3962 204.929 29.1568 202.079C29.5181 200.726 29.4137 199.464 28.632 198.28C28.2444 197.694 27.7194 197.242 27.1772 196.804C26.7489 196.458 26.2483 195.977 25.6941 195.845C24.5472 195.573 23.0644 196.343 22.4451 197.288C21.7903 198.286 21.6256 199.663 22.0837 200.766C22.4697 201.695 23.1511 202.552 24.0821 202.969C25.126 203.436 26.2001 202.79 26.5488 201.759C26.7577 201.141 26.989 199.553 26.09 199.327C25.3917 199.152 24.787 199.504 24.3492 199.968" stroke="#262215" stroke-width="5" stroke-linecap="round"/>
<path d="M88.7339 139.584C88.4906 138.678 87.2181 140.522 86.964 140.768C86.1112 141.594 85.9908 142.196 85.9732 143.377C85.9496 144.958 86.2082 146.91 87.5503 147.934C88.3246 148.525 89.2648 148.385 90.14 148.124C91.5123 147.716 92.074 146.644 92.5641 145.38C92.9519 144.38 93.6982 142.957 93.3241 141.856C93.0888 141.164 92.3564 140.457 91.7633 140.03C90.3113 138.984 89.1066 140.172 89.0379 141.669C88.9809 142.912 88.945 144.008 89.5374 145.122C89.7232 145.471 90.4226 146.41 90.2974 146.034" stroke="#262215" stroke-width="5" stroke-linecap="round"/>
<path d="M122.497 139.242C121.768 139.85 122.042 139.245 122.117 138.742C122.217 138.075 122.554 137.736 123.187 137.727C124.021 137.716 124.725 137.478 125.565 137.716C126.585 138.006 127.429 138.288 127.913 139.288C128.272 140.031 128.572 141.45 127.633 141.962C127.081 142.263 126.38 142.599 125.725 142.459C124.823 142.265 124.791 142.177 124.427 141.422C124.064 140.667 123.565 140.618 122.986 141.196" stroke="#262215" stroke-width="5" stroke-linecap="round"/>
<path d="M103.967 115.947C102.554 115.863 101.239 117.853 100.703 119.125C99.0531 123.044 101.362 129.084 105.853 129.542C110.086 129.974 111.97 126.647 112.477 123.1C112.917 120.018 109.323 116.229 106.371 115.573C102.332 114.675 102.288 127.764 106.585 126.983C109.354 126.48 110.065 121.546 108.316 119.718C107.161 118.511 107.113 120.479 106.847 121.443C106.658 122.129 105.012 125.916 106.467 125.754" stroke="#262215" stroke-width="5" stroke-linecap="round"/>
<path d="M161.272 55.7879C160.871 55.4669 159.988 56.4343 159.83 56.6544C158.785 58.1064 158.765 60.2853 159.495 61.8258C160.122 63.1489 161.739 64.6445 163.303 63.8726C164.068 63.4949 164.47 63.0005 164.904 62.2672C165.372 61.4745 165.123 60.7724 165.312 59.9255C165.578 58.7376 165.195 58.0398 164.845 56.9169C164.523 55.8805 163.358 56.0677 162.829 56.8612C162.246 57.7351 162.024 59.0253 162.044 60.0718C162.055 60.6408 162.795 61.8122 162.652 60.4296" stroke="#262215" stroke-width="5" stroke-linecap="round"/>
<path d="M239.101 37.4547C235.31 36.0899 232.796 38.0538 230.429 41.0319C228.696 43.2126 227.243 47.4862 230.326 49.3136C231.504 50.0114 232.876 50.8069 234.279 50.8069C235.78 50.8069 237.208 50.2814 238.711 50.2408C241.437 50.1672 243.67 48.1233 245.055 45.9072C246.376 43.7936 244.707 39.8888 243.181 38.2063C241.485 36.3364 238.766 38.0711 236.964 38.9285C234.949 39.8868 232.216 43.1902 233.137 45.5461C234.35 48.6446 237.795 47.9875 239.814 46.2293C241.436 44.816 243.586 42.5773 243.644 40.2803C243.706 37.8987 241.016 38.2111 239.726 39.3287C237.847 40.9553 236.504 42.8201 236.397 45.3899C236.365 46.1609 236.698 47.1829 237.7 46.8881C238.981 46.5114 239.649 44.9377 240.028 43.8087C240.218 43.2446 240.989 40.7641 239.648 40.9001C238.566 41.0098 237.64 42.2028 237.442 43.1938C237.277 44.0159 237.939 45.3836 238.96 44.8287C239.851 44.3437 240.549 42.8423 240.375 41.8615C239.909 39.2429 235.831 41.7501 234.763 42.6912C233.682 43.6425 233.316 44.6684 233.001 46.0146C232.883 46.5177 232.767 48.0637 232.767 47.547C232.767 46.9012 231.62 46.8051 231.781 45.8682C232.209 43.3698 235.508 41.9649 237.569 41.1832C238.465 40.8433 239.21 40.8789 240.121 40.7488C240.534 40.6899 242.205 40.9026 241.473 40.3536" stroke="#262215" stroke-width="5" stroke-linecap="round"/>
</svg>
