<svg width="386" height="387" viewBox="0 0 386 387" fill="none" xmlns="http://www.w3.org/2000/svg">
<path d="M181.365 87.7494L195.959 66.8105L211.505 53.1685L231.809 44.9199L256.872 45.8716L274.321 55.072L291.453 72.2039L301.288 94.729L301.605 124.234L288.915 152.152L266.707 178.802L247.672 157.863L261.631 142L274.321 123.599L276.859 102.026L266.073 81.7215L249.892 72.5211L232.126 73.7901L215.946 86.7976L206.428 112.813L181.365 87.7494Z" fill="#F9F7F4"/>
<path d="M249.258 156.911L267.821 133.944C278.939 120.188 279.372 100.661 268.875 86.4257L267.907 85.1132C265.03 81.2116 261.3 78.0184 257.001 75.7773V75.7773C240.52 67.1845 220.213 74.4784 212.966 91.5941L212.501 92.6925C211.838 94.2593 211.297 95.8751 210.883 97.5254L207.471 111.136" stroke="#262215" stroke-width="10" stroke-linecap="round"/>
<path d="M267.659 177.85L281.977 160.246C285.325 156.13 288.245 151.684 290.692 146.978L294.692 139.287C307.421 114.807 303.526 84.985 284.936 64.596L283.933 63.4966C279.049 58.1396 273.203 53.7468 266.698 50.5461V50.5461C238.727 36.7823 204.879 47.6168 190.099 75.0651L183.269 87.7497" stroke="#262215" stroke-width="10" stroke-linecap="round"/>
<path d="M244.988 156.739C287.916 199.667 281.888 260.701 238.96 303.629C175.192 362.321 134.999 348.143 92.0709 305.215C-12.9404 200.204 27.0332 262.385 109.203 180.216C217.07 72.3499 139.342 51.0936 244.988 156.739Z" fill="#F9F7F4"/>
<path fill-rule="evenodd" clip-rule="evenodd" d="M174 79.8884C175.793 78.1785 178.633 78.2461 180.343 80.0395L245.447 148.319L260.519 165.544C289.428 198.583 291.329 247.326 265.082 282.517L264.978 282.657L242.486 308.362L228.423 321.146C223.491 325.63 218.097 329.578 212.331 332.923L204.247 337.614C197.69 341.419 190.648 344.319 183.313 346.236C153.735 353.967 122.292 345.032 101.2 322.902L17.4411 235.024C15.7314 233.23 15.7996 230.39 17.5933 228.681C19.387 226.971 22.227 227.039 23.9366 228.833L107.695 316.711C126.536 336.479 154.623 344.46 181.044 337.555C187.596 335.842 193.886 333.251 199.743 329.853L207.828 325.162C213.044 322.135 217.925 318.563 222.387 314.506L236.07 302.067L257.993 277.013C281.602 245.225 279.85 201.264 253.766 171.453L238.82 154.372L173.849 86.2318C172.139 84.4384 172.206 81.5984 174 79.8884Z" fill="#262215"/>
<path d="M211.2 163.877C210.955 167.448 216.91 169.228 213.718 163.69C212.628 161.799 210.397 162.178 209.772 162.769C208.267 164.192 211.561 169.449 213.512 167.497" stroke="#262215" stroke-width="10" stroke-linecap="round"/>
<path d="M195.804 145.886C195.69 145.801 195.788 147.396 195.804 147.687C195.9 149.527 197.066 151.186 197.733 152.833C198.294 154.215 199.615 155.968 201.158 154.425C202.636 152.947 202.881 151.715 201.295 150.525C199.796 149.401 198.088 148.672 196.817 147.189" stroke="#262215" stroke-width="10" stroke-linecap="round"/>
<path d="M176.266 127.507C179.293 126.576 180.386 126.963 183.39 127.684C184.721 128.004 185.914 129.224 186.445 130.45C186.725 131.097 186.968 133.465 186.518 134.028C182.704 138.795 178.049 132.214 176.266 129.244" stroke="#262215" stroke-width="10" stroke-linecap="round"/>
<path d="M116.376 175.038C134.375 157.039 148.398 140.622 158.519 126.668C168.564 112.82 175.006 101.073 177.482 92.4475C180.468 82.0458 171.649 72.9453 161.245 75.1677C151.48 77.2536 138.791 84.2999 124.941 94.5974C110.953 104.998 95.2824 119.095 79.4743 135.919C64.7766 150.623 50.5319 167.534 39.3705 182.899C28.3478 198.073 19.8651 212.366 17.3504 221.669C15.0878 230.04 22.0159 237.307 30.3256 236.006C38.7744 234.683 50.8362 228.769 65.1817 218.856C79.7132 208.814 97.1285 194.286 116.376 175.038Z" fill="#F9F7F4" stroke="#262215" stroke-width="10"/>
<path d="M151.272 90.8694C158.846 87.6698 164.664 93.8701 161.164 101.311C154.776 114.891 137.458 138.001 109.074 166.386C78.1887 197.271 53.678 214.548 40.8258 219.163C35.3367 221.134 31.3299 216.691 33.7092 211.367C40.3593 196.483 63.5235 166.474 87.3584 142.639C112.511 116.127 136.505 97.107 151.272 90.8694Z" fill="#262215"/>
</svg>
