<svg width="32" height="32" viewBox="0 0 32 32" fill="none" xmlns="http://www.w3.org/2000/svg">
<g clip-path="url(#clip0_348_25)">
<rect width="32" height="32" rx="16" fill="#F9F7F4"/>
<path d="M22.9619 11.2367L24.6457 10.447L26.1238 10.1525L27.7057 10.3718L29.2527 11.345L30.0187 12.5614L30.4756 14.2667L30.2756 16.0466L29.2206 17.9201L27.4025 19.2196L25.0301 20.0923L24.5917 18.0773L26.0506 17.5848L27.5219 16.886L28.4681 15.617L28.5272 13.9426L27.8413 12.7725L26.6739 12.2053L25.1789 12.4366L23.6304 13.7316L22.9619 11.2367Z" fill="#F9F7F4"/>
<path d="M24.7265 18.0756L26.7348 17.3026C27.9376 16.8395 28.6764 15.6231 28.5326 14.3422L28.5194 14.2241C28.48 13.8731 28.3609 13.5357 28.1713 13.2376V13.2376C27.4443 12.0949 25.897 11.8153 24.8161 12.6314L24.7467 12.6837C24.6477 12.7584 24.5547 12.8407 24.4685 12.9298L23.7573 13.6644" stroke="#262215" stroke-linecap="round"/>
<path d="M25.1246 20.0672L26.6696 19.4779C27.0308 19.3401 27.3771 19.166 27.703 18.9581L28.2356 18.6185C29.9309 17.5374 30.7716 15.5135 30.3413 13.5495L30.3181 13.4436C30.2051 12.9275 29.9962 12.4373 29.7023 11.9983V11.9983C28.4386 10.1106 25.9078 9.56106 23.975 10.7547L23.0818 11.3064" stroke="#262215" stroke-linecap="round"/>
<path d="M24.4631 17.9085C25.6081 22.1816 23.0039 25.8137 18.7307 26.9587C12.568 28.3392 10.5481 25.98 9.4031 21.7068C6.60219 11.2537 6.85923 16.6343 15.0386 14.4427C25.776 11.5657 21.6452 7.39219 24.4631 17.9085Z" fill="#F9F7F4"/>
<path fill-rule="evenodd" clip-rule="evenodd" d="M22.783 10.4719C22.9585 10.4293 23.1353 10.5371 23.1778 10.7126L24.7986 17.3936L25.1222 19.0298C25.7427 22.1681 24.0868 25.3134 21.1482 26.5779L21.1365 26.5829L18.7805 27.3856L17.4273 27.68C16.9527 27.7833 16.4684 27.8359 15.9826 27.8369L15.3016 27.8384C14.7491 27.8396 14.1991 27.7661 13.6663 27.6198C11.5181 27.03 9.85934 25.3205 9.33455 23.1554L7.25059 14.5579C7.20806 14.3824 7.31584 14.2057 7.49132 14.1631C7.66681 14.1206 7.84355 14.2284 7.88608 14.4039L9.97004 23.0014C10.4388 24.9353 11.9205 26.4624 13.8394 26.9893C14.3153 27.1199 14.8067 27.1856 15.3002 27.1845L15.9812 27.1831C16.4207 27.1821 16.8589 27.1345 17.2883 27.0411L18.605 26.7546L20.9013 25.9723C23.5494 24.8264 25.0406 21.9883 24.4807 19.1566L24.1598 17.5341L22.5424 10.8667C22.4998 10.6912 22.6075 10.5145 22.783 10.4719Z" fill="#262215" stroke="#262215" stroke-width="0.2" stroke-linecap="round"/>
<path d="M22.0706 17.1275C21.925 17.344 22.2359 17.6733 22.2363 17.2076C22.2364 17.0484 22.0818 16.9911 22.0208 17.0056C21.874 17.0406 21.8903 17.4923 22.0845 17.4403" stroke="#262215" stroke-linecap="round"/>
<path d="M21.7546 15.4308C21.7505 15.4213 21.6986 15.5255 21.689 15.5445C21.628 15.6641 21.6411 15.8112 21.6232 15.9395C21.6082 16.0471 21.6278 16.2059 21.7814 16.1647C21.9285 16.1253 21.9888 16.0565 21.9321 15.9236C21.8785 15.7981 21.7972 15.6898 21.771 15.5499" stroke="#262215" stroke-linecap="round"/>
<path d="M21.191 13.5599C21.4159 13.6114 21.4708 13.6756 21.6341 13.8306C21.7064 13.8992 21.7373 14.0197 21.7261 14.1164C21.7202 14.1675 21.6492 14.3257 21.6003 14.3449C21.1859 14.5068 21.1319 13.9219 21.1277 13.6695" stroke="#262215" stroke-linecap="round"/>
<path d="M20.3364 9.3958C19.0755 9.41801 17.2924 9.70986 15.0235 10.3583C14.7266 10.4379 14.4281 10.5196 14.129 10.603C11.9201 11.2192 10.2825 11.8745 9.2093 12.4861C8.67563 12.7902 8.25603 13.0978 7.97659 13.4038C7.71346 13.692 7.47859 14.0887 7.58876 14.5282C7.70033 14.9732 8.09993 15.2057 8.46974 15.3255C8.86083 15.4522 9.37404 15.508 9.9832 15.5032C11.2088 15.4934 12.947 15.2356 15.1652 14.6544C15.4055 14.5914 15.6487 14.527 15.8946 14.4611L16.0839 14.4103C18.3646 13.7959 20.0507 13.1244 21.1531 12.4906C21.7014 12.1754 22.1306 11.8551 22.4148 11.5361C22.6845 11.2334 22.9131 10.826 22.7983 10.3821C22.6822 9.93305 22.28 9.69374 21.8956 9.56975C21.4922 9.43963 20.9636 9.38475 20.3364 9.3958Z" fill="#F9F7F4" stroke="#262215"/>
<path d="M15.2712 11.3101C23.4255 9.01666 24.0101 11.2521 15.8304 13.4532C15.7675 13.4701 15.7044 13.4871 15.641 13.5041V13.5041C7.15268 15.7785 6.60939 13.6463 15.0939 11.3578C15.1531 11.3418 15.2122 11.3259 15.2712 11.3101V11.3101Z" fill="#262215"/>
<path d="M1.70267 11.6569C1.84101 11.4006 2.05352 11.1922 2.31237 11.0588L2.38931 11.0191C2.4696 10.9777 2.55301 10.9427 2.63878 10.9144L3.12316 10.7545C3.34495 10.6813 3.57277 10.6278 3.80397 10.5946V10.5946C4.04428 10.5602 4.28725 10.5479 4.52981 10.5578L4.60209 10.5608C4.94481 10.5749 5.28499 10.626 5.6167 10.7133L7.57931 11.2299C7.70951 11.2641 7.8464 11.2638 7.97646 11.229L8.01108 11.2197C8.09281 11.1978 8.16904 11.159 8.23484 11.1058V11.1058C8.31228 11.0432 8.37305 10.9624 8.41176 10.8706L8.41401 10.8653C8.45648 10.7646 8.47194 10.6546 8.45888 10.5462L8.45335 10.5003C8.43847 10.3768 8.39502 10.2584 8.32645 10.1545L8.26362 10.0594C8.21005 9.97825 8.14744 9.90345 8.077 9.83644L7.97046 9.73509C7.82295 9.59477 7.65933 9.47243 7.48301 9.37063L7.36535 9.3027L6.89855 9.05173C6.82023 9.00962 6.74697 8.95873 6.68018 8.90003L6.67321 8.8939C6.54132 8.778 6.43823 8.63298 6.3721 8.47032V8.47032C6.32436 8.3529 6.2967 8.22828 6.29028 8.10168L6.28611 8.01958C6.28164 7.93143 6.29255 7.84317 6.31836 7.75876V7.75876C6.34445 7.67347 6.38535 7.59343 6.43918 7.52231L6.49148 7.45322C6.5326 7.3989 6.58116 7.35062 6.63571 7.3098V7.3098C6.74231 7.23005 6.86876 7.18108 7.00127 7.16824L7.0924 7.1594C7.23922 7.14517 7.38739 7.16225 7.52711 7.20952V7.20952C7.57994 7.22739 7.63125 7.24947 7.68054 7.27554L7.84273 7.36134C8.00437 7.44685 8.15175 7.55694 8.2796 7.68769V7.68769C8.39371 7.80439 8.4911 7.93636 8.56897 8.07981L8.67084 8.26746C8.75705 8.42626 8.83006 8.59188 8.88914 8.76263L9.06136 9.26037L9.16721 9.48729C9.23463 9.6318 9.3226 9.7658 9.4284 9.88512L9.54625 10.018C9.58605 10.0629 9.63281 10.1011 9.68476 10.131L9.80973 10.2032C9.85788 10.231 9.9151 10.2385 9.96881 10.2241L10.0214 10.2101C10.0562 10.2007 10.0841 10.1746 10.0957 10.1404V10.1404C10.1049 10.1132 10.1245 10.0909 10.1501 10.0782L10.1843 10.0613C10.2206 10.0433 10.2614 10.0368 10.3015 10.0426L10.3723 10.0528C10.4265 10.0606 10.4787 10.0787 10.5261 10.106L10.6491 10.177C10.7279 10.2226 10.8012 10.2772 10.8674 10.3397L10.9518 10.4196C11.0392 10.5022 11.1334 10.5774 11.2333 10.6443L11.2831 10.6777C11.4839 10.8121 11.7007 10.9207 11.9286 11.0009L11.9378 11.0041C12.1142 11.0661 12.296 11.1113 12.4808 11.1389L12.7528 11.1795C12.8562 11.195 12.9608 11.2025 13.0654 11.2021L13.2418 11.2013C13.3904 11.2006 13.5378 11.2287 13.6757 11.2841L13.6883 11.2891C13.8037 11.3354 13.9101 11.4015 14.0029 11.4842V11.4842C14.6403 12.0526 14.3911 13.1015 13.5662 13.3225L11.6146 13.8455L9.82469 14.3251C9.57213 14.3928 9.31331 14.4345 9.05227 14.4496V14.4496C8.75458 14.4668 8.45589 14.4493 8.16224 14.3974L7.67722 14.3118L7.47837 14.2567C7.25575 14.1951 7.05677 14.0681 6.90723 13.892V13.892C6.80336 13.7698 6.67511 13.6705 6.53068 13.6006L6.2699 13.4745C6.09432 13.3896 5.9095 13.3253 5.71912 13.2829L5.58089 13.2521C5.38464 13.2084 5.18421 13.1862 4.98315 13.186V13.186C4.67654 13.1856 4.372 13.2362 4.08199 13.3358L4.02012 13.357C3.83263 13.4214 3.63949 13.4679 3.44327 13.4961L3.19564 13.5316C3.08525 13.5474 2.97345 13.551 2.86226 13.5424V13.5424C2.63595 13.5248 2.41645 13.4568 2.21987 13.3433L2.18644 13.324C2.08326 13.2644 1.98871 13.191 1.90541 13.1058L1.88892 13.089C1.74278 12.9395 1.63759 12.7549 1.58348 12.553L1.57888 12.5358C1.53926 12.3879 1.53008 12.2335 1.55191 12.082V12.082C1.57088 11.9504 1.61291 11.8231 1.67609 11.7061L1.70267 11.6569Z" fill="#262215"/>
<path d="M5.59453 11.3225C6.07003 11.4504 6.37246 11.7535 5.89179 11.6466V11.6466C5.28474 11.5115 4.40193 11.6693 3.78513 11.7486C3.50302 11.7849 3.33515 11.731 3.29239 11.5714C3.21517 11.2832 3.57191 10.9667 4.57394 11.0808C4.97242 11.1677 5.31949 11.2485 5.59453 11.3225Z" fill="#D9D9D9"/>
<path d="M8.02226 8.00387C8.13462 8.53307 7.64852 7.9274 7.42143 7.95881C6.79467 8.04551 6.83137 7.73418 6.92652 7.64984C7.02167 7.56549 7.20822 7.47901 7.45572 7.5375C7.86429 7.63407 7.94097 7.70049 8.02226 8.00387Z" fill="#D9D9D9"/>
<path d="M10.7895 10.5636C10.8189 10.6735 10.5919 10.4694 10.5256 10.4577C10.3237 10.4222 10.3202 10.3799 10.3499 10.3491C10.3797 10.3183 10.4393 10.2882 10.5213 10.3146C10.6566 10.3583 10.7579 10.446 10.7895 10.5636Z" fill="#D9D9D9"/>
<path d="M17.104 7.80389V7.80389C17.2249 7.59443 17.3662 7.39742 17.5259 7.21574L17.5579 7.17938L17.6827 7.04329C17.7672 6.95115 17.8595 6.86645 17.9585 6.79012L17.9756 6.77698C18.061 6.71116 18.1518 6.65263 18.247 6.60201L18.2716 6.58895C18.3839 6.52926 18.5029 6.48243 18.6257 6.44951V6.44951C18.7227 6.42352 18.8221 6.40624 18.9222 6.39802L18.9742 6.39376C19.0513 6.38742 19.1289 6.38885 19.2057 6.39801L19.2221 6.39997C19.3371 6.41368 19.449 6.4462 19.5534 6.49622L19.5598 6.49931C19.6087 6.52274 19.6556 6.55022 19.6999 6.58147L19.7418 6.61102C19.7908 6.64558 19.8345 6.68708 19.8716 6.73421L19.8812 6.74637C19.9268 6.80429 19.9601 6.87086 19.9792 6.94205L19.983 6.95625C19.9956 7.00335 20.0005 7.05217 19.9976 7.10085V7.10085C19.9934 7.17115 19.9729 7.23951 19.9377 7.3005L19.8902 7.38273L19.8528 7.44746C19.811 7.51997 19.7528 7.58173 19.6829 7.62787V7.62787C19.6533 7.64743 19.6218 7.66403 19.5889 7.6774L19.5575 7.69017C19.4697 7.72586 19.3767 7.74716 19.2822 7.75326L19.1341 7.76281L19.0935 7.76037C18.9406 7.75119 18.7871 7.75714 18.6353 7.77813V7.77813L18.5957 7.78362C18.4707 7.8009 18.3493 7.83746 18.2355 7.89199V7.89199C18.0724 7.97023 17.9287 8.08382 17.8149 8.2245L17.8089 8.23184C17.7652 8.28584 17.7172 8.33614 17.6652 8.38223L17.5056 8.52376C17.4731 8.55253 17.4354 8.57474 17.3945 8.58915L17.3782 8.59488C17.2236 8.64933 17.053 8.57667 16.9851 8.42745V8.42745C16.9692 8.39255 16.9598 8.35505 16.9574 8.31678L16.954 8.26501C16.9464 8.14689 16.9739 8.02916 17.0331 7.92666L17.104 7.80389Z" fill="#262215"/>
<path d="M18.3369 6.863C18.2732 6.94386 18.2895 7.09022 18.3536 7.00975V7.00975C18.4313 6.9123 18.6287 6.83849 18.751 6.81455C18.9253 6.78043 19.0126 6.74677 18.993 6.67378C18.9674 6.57835 18.749 6.52373 18.474 6.7241C18.4066 6.78436 18.3637 6.829 18.3369 6.863Z" fill="#D9D9D9"/>
</g>
<defs>
<clipPath id="clip0_348_25">
<rect width="32" height="32" rx="16" fill="white"/>
</clipPath>
</defs>
</svg>
